<svg width="16" height="16" viewBox="0 0 16 16" fill="none" xmlns="http://www.w3.org/2000/svg">
<mask id="mask0_203_443" style="mask-type:alpha" maskUnits="userSpaceOnUse" x="0" y="0" width="16" height="16">
<rect width="16" height="16" fill="#D9D9D9"/>
</mask>
<g mask="url(#mask0_203_443)">
<path d="M5.99987 11.7333C5.91098 11.7333 5.82765 11.7166 5.74987 11.6833C5.67209 11.6499 5.59987 11.5999 5.5332 11.5333L2.46654 8.4666C2.39987 8.39994 2.35265 8.32771 2.32487 8.24993C2.29709 8.17216 2.2832 8.08882 2.2832 7.99993C2.2832 7.91105 2.29709 7.82771 2.32487 7.74993C2.35265 7.67216 2.39987 7.59994 2.46654 7.53327L5.5332 4.4666C5.59987 4.39993 5.67209 4.34993 5.74987 4.3166C5.82765 4.28327 5.91098 4.2666 5.99987 4.2666C6.17765 4.2666 6.3332 4.33049 6.46654 4.45827C6.59987 4.58605 6.66654 4.74993 6.66654 4.94993V11.0499C6.66654 11.2499 6.59987 11.4138 6.46654 11.5416C6.3332 11.6694 6.17765 11.7333 5.99987 11.7333ZM9.99987 11.7333C9.82209 11.7333 9.66654 11.6694 9.5332 11.5416C9.39987 11.4138 9.3332 11.2499 9.3332 11.0499V4.94993C9.3332 4.74993 9.39987 4.58605 9.5332 4.45827C9.66654 4.33049 9.82209 4.2666 9.99987 4.2666C10.0888 4.2666 10.1721 4.28327 10.2499 4.3166C10.3276 4.34993 10.3999 4.39993 10.4665 4.4666L13.5332 7.53327C13.5999 7.59994 13.6471 7.67216 13.6749 7.74993C13.7026 7.82771 13.7165 7.91105 13.7165 7.99993C13.7165 8.08882 13.7026 8.17216 13.6749 8.24993C13.6471 8.32771 13.5999 8.39994 13.5332 8.4666L10.4665 11.5333C10.3999 11.5999 10.3276 11.6499 10.2499 11.6833C10.1721 11.7166 10.0888 11.7333 9.99987 11.7333Z" fill="#0050FF"/>
</g>
</svg>
