<svg width="17" height="16" viewBox="0 0 17 16" fill="none" xmlns="http://www.w3.org/2000/svg">
    <mask id="mask0_162_418" style="mask-type:alpha" maskUnits="userSpaceOnUse" x="0" y="0"
        width="17" height="16">
        <rect x="0.5" width="16" height="16" fill="#D9D9D9" />
    </mask>
    <g mask="url(#mask0_162_418)">
        <path
            d="M7.89783 12.8678L4.60283 10.964C4.41205 10.8528 4.26394 10.7062 4.15849 10.5242C4.05305 10.3422 4.00033 10.1417 4.00033 9.92284V6.11517C4.00033 5.89639 4.05305 5.696 4.15849 5.514C4.26394 5.332 4.41205 5.18539 4.60283 5.07417L7.89783 3.17034C8.08894 3.061 8.2901 3.00634 8.50133 3.00634C8.71266 3.00634 8.91316 3.061 9.10283 3.17034L12.3978 5.07417C12.5886 5.18539 12.7367 5.332 12.8422 5.514C12.9476 5.696 13.0003 5.89639 13.0003 6.11517V9.92284C13.0003 10.1417 12.9476 10.3422 12.8422 10.5242C12.7367 10.7062 12.5886 10.8528 12.3978 10.964L9.10283 12.8678C8.91172 12.9772 8.71055 13.0318 8.49933 13.0318C8.28799 13.0318 8.08749 12.9772 7.89783 12.8678ZM8.00033 11.7768V8.29984L5.00033 6.57667V9.92284C5.00033 9.95706 5.00888 9.98912 5.02599 10.019C5.0431 10.049 5.06871 10.0747 5.10283 10.096L8.00033 11.7768ZM9.00033 11.7768L11.8978 10.096C11.9319 10.0747 11.9575 10.049 11.9747 10.019C11.9918 9.98912 12.0003 9.95706 12.0003 9.92284V6.57667L9.00033 8.29984V11.7768ZM2.66683 5.1665C2.52505 5.1665 2.40633 5.11856 2.31066 5.02267C2.21488 4.92689 2.16699 4.80817 2.16699 4.6665V2.87167C2.16699 2.54023 2.28499 2.2565 2.52099 2.0205C2.75699 1.7845 3.04071 1.6665 3.37216 1.6665H5.16699C5.30866 1.6665 5.42738 1.71445 5.52316 1.81034C5.61905 1.90623 5.66699 2.025 5.66699 2.16667C5.66699 2.30845 5.61905 2.42717 5.52316 2.52284C5.42738 2.61862 5.30866 2.6665 5.16699 2.6665H3.37216C3.31227 2.6665 3.2631 2.68573 3.22466 2.72417C3.18621 2.76262 3.16699 2.81178 3.16699 2.87167V4.6665C3.16699 4.80817 3.11905 4.92689 3.02316 5.02267C2.92727 5.11856 2.80849 5.1665 2.66683 5.1665ZM3.37216 14.3332C3.04071 14.3332 2.75699 14.2152 2.52099 13.9792C2.28499 13.7432 2.16699 13.4594 2.16699 13.128V11.3332C2.16699 11.1915 2.21494 11.0728 2.31083 10.977C2.40671 10.8811 2.52549 10.8332 2.66716 10.8332C2.80894 10.8332 2.92766 10.8811 3.02333 10.977C3.1191 11.0728 3.16699 11.1915 3.16699 11.3332V13.128C3.16699 13.1879 3.18621 13.2371 3.22466 13.2755C3.2631 13.3139 3.31227 13.3332 3.37216 13.3332H5.16699C5.30866 13.3332 5.42738 13.3811 5.52316 13.477C5.61905 13.5729 5.66699 13.6917 5.66699 13.8333C5.66699 13.9751 5.61905 14.0938 5.52316 14.1895C5.42738 14.2853 5.30866 14.3332 5.16699 14.3332H3.37216ZM13.6285 14.3332H11.8337C11.692 14.3332 11.5733 14.2852 11.4775 14.1893C11.3816 14.0934 11.3337 13.9747 11.3337 13.833C11.3337 13.6912 11.3816 13.5725 11.4775 13.4768C11.5733 13.3811 11.692 13.3332 11.8337 13.3332H13.6285C13.6884 13.3332 13.7375 13.3139 13.776 13.2755C13.8144 13.2371 13.8337 13.1879 13.8337 13.128V11.3332C13.8337 11.1915 13.8816 11.0728 13.9775 10.977C14.0734 10.8811 14.1922 10.8332 14.3338 10.8332C14.4756 10.8332 14.5943 10.8811 14.69 10.977C14.7858 11.0728 14.8337 11.1915 14.8337 11.3332V13.128C14.8337 13.4594 14.7157 13.7432 14.4797 13.9792C14.2437 14.2152 13.9599 14.3332 13.6285 14.3332ZM13.8337 4.6665V2.87167C13.8337 2.81178 13.8144 2.76262 13.776 2.72417C13.7375 2.68573 13.6884 2.6665 13.6285 2.6665H11.8337C11.692 2.6665 11.5733 2.61856 11.4775 2.52267C11.3816 2.42678 11.3337 2.308 11.3337 2.16634C11.3337 2.02456 11.3816 1.90584 11.4775 1.81017C11.5733 1.71439 11.692 1.6665 11.8337 1.6665H13.6285C13.9599 1.6665 14.2437 1.7845 14.4797 2.0205C14.7157 2.2565 14.8337 2.54023 14.8337 2.87167V4.6665C14.8337 4.80817 14.7857 4.92689 14.6898 5.02267C14.5939 5.11856 14.4752 5.1665 14.3335 5.1665C14.1917 5.1665 14.073 5.11856 13.9773 5.02267C13.8815 4.92689 13.8337 4.80817 13.8337 4.6665ZM8.50033 7.43834L11.4798 5.70234L8.60283 4.04467C8.56872 4.02334 8.53455 4.01267 8.50033 4.01267C8.4661 4.01267 8.43194 4.02334 8.39783 4.04467L5.52083 5.70234L8.50033 7.43834Z"
        />
    </g>
</svg>