<svg width="16" height="16" viewBox="0 0 16 16" fill="none" xmlns="http://www.w3.org/2000/svg">
<mask id="mask0_194_460" style="mask-type:alpha" maskUnits="userSpaceOnUse" x="0" y="0" width="16" height="16">
<rect width="16" height="16" fill="#D9D9D9"/>
</mask>
<g mask="url(#mask0_194_460)">
<path d="M7.49984 8.50008H4.1665C4.02484 8.50008 3.90612 8.45214 3.81034 8.35625C3.71445 8.26036 3.6665 8.14158 3.6665 7.99991C3.6665 7.85814 3.71445 7.73941 3.81034 7.64375C3.90612 7.54797 4.02484 7.50008 4.1665 7.50008H7.49984V4.16675C7.49984 4.02508 7.54778 3.90636 7.64367 3.81058C7.73956 3.71469 7.85834 3.66675 8 3.66675C8.14178 3.66675 8.2605 3.71469 8.35617 3.81058C8.45195 3.90636 8.49984 4.02508 8.49984 4.16675V7.50008H11.8332C11.9748 7.50008 12.0936 7.54803 12.1893 7.64391C12.2852 7.7398 12.3332 7.85858 12.3332 8.00025C12.3332 8.14203 12.2852 8.26075 12.1893 8.35641C12.0936 8.45219 11.9748 8.50008 11.8332 8.50008H8.49984V11.8334C8.49984 11.9751 8.45189 12.0938 8.356 12.1896C8.26012 12.2855 8.14134 12.3334 7.99967 12.3334C7.85789 12.3334 7.73917 12.2855 7.6435 12.1896C7.54773 12.0938 7.49984 11.9751 7.49984 11.8334V8.50008Z" fill="black"/>
</g>
</svg>
