<svg width="17" height="16" viewBox="0 0 17 16" fill="none" xmlns="http://www.w3.org/2000/svg">
<mask id="mask0_162_428" style="mask-type:alpha" maskUnits="userSpaceOnUse" x="0" y="0" width="17" height="16">
<rect x="0.5" width="16" height="16" fill="#D9D9D9"/>
</mask>
<g mask="url(#mask0_162_428)">
<path d="M4.03866 13.6666C3.70188 13.6666 3.41683 13.5499 3.1835 13.3166C2.95016 13.0833 2.8335 12.7982 2.8335 12.4614V3.53842C2.8335 3.20164 2.95016 2.91659 3.1835 2.68325C3.41683 2.44992 3.70188 2.33325 4.03866 2.33325H12.9617C13.2984 2.33325 13.5835 2.44992 13.8168 2.68325C14.0502 2.91659 14.1668 3.20164 14.1668 3.53842V12.4614C14.1668 12.7982 14.0502 13.0833 13.8168 13.3166C13.5835 13.5499 13.2984 13.6666 12.9617 13.6666H4.03866ZM4.03866 12.6666H12.9617C13.013 12.6666 13.06 12.6452 13.1027 12.6024C13.1454 12.5598 13.1668 12.5128 13.1668 12.4614V3.53842C13.1668 3.48709 13.1454 3.44008 13.1027 3.39742C13.06 3.35464 13.013 3.33325 12.9617 3.33325H4.03866C3.98733 3.33325 3.94033 3.35464 3.89766 3.39742C3.85488 3.44008 3.8335 3.48709 3.8335 3.53842V12.4614C3.8335 12.5128 3.85488 12.5598 3.89766 12.6024C3.94033 12.6452 3.98733 12.6666 4.03866 12.6666ZM5.60283 11.1666H11.4488C11.5694 11.1666 11.6587 11.1119 11.7168 11.0024C11.7749 10.8931 11.7659 10.7871 11.6898 10.6846L10.1002 8.55509C10.0377 8.47475 9.95738 8.43458 9.85916 8.43458C9.76083 8.43458 9.6805 8.47475 9.61816 8.55509L7.98733 10.6794L6.895 9.27942C6.83266 9.20331 6.75339 9.16525 6.65716 9.16525C6.56105 9.16525 6.48177 9.20547 6.41933 9.28592L5.36816 10.6846C5.28783 10.7871 5.27672 10.8931 5.33483 11.0024C5.39294 11.1119 5.48227 11.1666 5.60283 11.1666ZM6.16683 6.49992C6.39761 6.49992 6.59416 6.4187 6.7565 6.25625C6.91894 6.09392 7.00016 5.89736 7.00016 5.66658C7.00016 5.43581 6.91894 5.23925 6.7565 5.07692C6.59416 4.91447 6.39761 4.83325 6.16683 4.83325C5.93605 4.83325 5.7395 4.91447 5.57716 5.07692C5.41472 5.23925 5.3335 5.43581 5.3335 5.66658C5.3335 5.89736 5.41472 6.09392 5.57716 6.25625C5.7395 6.4187 5.93605 6.49992 6.16683 6.49992Z"/>
</g>
</svg>
